<svg width="12" height="12" viewBox="0 0 12 12" fill="none" xmlns="http://www.w3.org/2000/svg">
<path d="M8.50006 10.8301C8.65084 10.6793 8.74319 10.4698 8.7429 10.2397L8.7429 10.1384C8.7429 9.6776 8.36986 9.30456 7.90965 9.30515L3.35673 9.30515L11.0585 1.60339C11.3838 1.27813 11.3838 0.750152 11.0585 0.424883C10.7332 0.0996138 10.2052 0.0996138 9.87998 0.424883L2.17822 8.12664V3.57372C2.17822 3.11292 1.80519 2.73988 1.34498 2.74047H1.2437C0.782902 2.74047 0.409866 3.11351 0.410456 3.57372V10.2397C0.410456 10.7005 0.783491 11.0735 1.2437 11.0729L7.90965 11.0729C8.14005 11.0729 8.34928 10.9809 8.50006 10.8301Z" fill="#FF3B30"/>
</svg>
