<svg width="11" height="12" viewBox="0 0 11 12" fill="none" xmlns="http://www.w3.org/2000/svg">
<path d="M2.85199 0.796753C2.70121 0.947528 2.60886 1.15705 2.60915 1.38716L2.60915 1.48844C2.60915 1.94924 2.98219 2.32227 3.4424 2.32168L7.99532 2.32168L0.293562 10.0234C-0.0317072 10.3487 -0.0317072 10.8767 0.293562 11.2019C0.618831 11.5272 1.1468 11.5272 1.47207 11.2019L9.17383 3.50019V8.05311C9.17383 8.51391 9.54686 8.88695 10.0071 8.88636H10.1084C10.5691 8.88636 10.9422 8.51332 10.9416 8.05311V1.38716C10.9416 0.926361 10.5686 0.553326 10.1084 0.553915L3.4424 0.553915C3.212 0.553915 3.00277 0.645977 2.85199 0.796753Z" fill="#34C759"/>
</svg>
