<svg width="20" height="22" viewBox="0 0 20 22" fill="none" xmlns="http://www.w3.org/2000/svg">
<path fill-rule="evenodd" clip-rule="evenodd" d="M16.6666 4.875H3.33331C2.87308 4.875 2.49998 5.26675 2.49998 5.75V16.25C2.49998 16.7332 2.87308 17.125 3.33331 17.125H16.6666C17.1269 17.125 17.5 16.7332 17.5 16.25V5.75C17.5 5.26675 17.1269 4.875 16.6666 4.875ZM3.33331 3.125C1.9526 3.125 0.833313 4.30025 0.833313 5.75V16.25C0.833313 17.6997 1.9526 18.875 3.33331 18.875H16.6666C18.0474 18.875 19.1666 17.6997 19.1666 16.25V5.75C19.1666 4.30025 18.0474 3.125 16.6666 3.125H3.33331Z" fill="#7D7D7D"/>
<path d="M6.66669 14.0625C6.66669 14.7874 6.10704 15.375 5.41669 15.375C4.72633 15.375 4.16669 14.7874 4.16669 14.0625C4.16669 13.3376 4.72633 12.75 5.41669 12.75C6.10704 12.75 6.66669 13.3376 6.66669 14.0625Z" fill="#7D7D7D"/>
<path d="M10.8333 14.0625C10.8333 14.7874 10.2737 15.375 9.58331 15.375C8.89296 15.375 8.33331 14.7874 8.33331 14.0625C8.33331 13.3376 8.89296 12.75 9.58331 12.75C10.2737 12.75 10.8333 13.3376 10.8333 14.0625Z" fill="#7D7D7D"/>
<path d="M0.833313 7.5H19.1666V9.25H0.833313V7.5Z" fill="#7D7D7D"/>
</svg>
