<svg width="38" height="39" viewBox="0 0 38 39" fill="none" xmlns="http://www.w3.org/2000/svg">
<circle cx="18.9231" cy="19.8096" r="18.8766" fill="#254896"/>
<path d="M27.0238 19.4551V14.898L22.4667 9.83453H11.8334C11.5648 9.83453 11.3073 9.94123 11.1174 10.1311C10.9274 10.3211 10.8207 10.5786 10.8207 10.8472V29.0757C10.8207 29.3443 10.9274 29.6019 11.1174 29.7918C11.3073 29.9817 11.5648 30.0884 11.8334 30.0884H17.9096" stroke="#EDF0F6" stroke-width="1.10475" stroke-linecap="round" stroke-linejoin="round"/>
<path fill-rule="evenodd" clip-rule="evenodd" d="M14.3654 22.5784C14.3654 22.4665 14.4098 22.3591 14.489 22.28C14.5681 22.2009 14.6754 22.1564 14.7874 22.1564H23.2273C23.3393 22.1564 23.4466 22.2009 23.5257 22.28C23.6049 22.3591 23.6493 22.4665 23.6493 22.5784C23.6493 22.6903 23.6049 22.7977 23.5257 22.8768C23.4466 22.9559 23.3393 23.0004 23.2273 23.0004H14.7874C14.6754 23.0004 14.5681 22.9559 14.489 22.8768C14.4098 22.7977 14.3654 22.6903 14.3654 22.5784ZM14.3654 19.2024C14.3654 19.0905 14.4098 18.9832 14.489 18.904C14.5681 18.8249 14.6754 18.7804 14.7874 18.7804H23.2273C23.3393 18.7804 23.4466 18.8249 23.5257 18.904C23.6049 18.9832 23.6493 19.0905 23.6493 19.2024C23.6493 19.3143 23.6049 19.4217 23.5257 19.5008C23.4466 19.58 23.3393 19.6244 23.2273 19.6244H14.7874C14.6754 19.6244 14.5681 19.58 14.489 19.5008C14.4098 19.4217 14.3654 19.3143 14.3654 19.2024ZM14.3654 15.8264C14.3654 15.7145 14.4098 15.6072 14.489 15.528C14.5681 15.4489 14.6754 15.4044 14.7874 15.4044H23.2273C23.3393 15.4044 23.4466 15.4489 23.5257 15.528C23.6049 15.6072 23.6493 15.7145 23.6493 15.8264C23.6493 15.9383 23.6049 16.0457 23.5257 16.1248C23.4466 16.204 23.3393 16.2484 23.2273 16.2484H14.7874C14.6754 16.2484 14.5681 16.204 14.489 16.1248C14.4098 16.0457 14.3654 15.9383 14.3654 15.8264Z" fill="#EDF0F6"/>
<path d="M24.2391 19.9615C21.3031 19.9615 18.9225 22.3421 18.9225 25.2781C18.9225 28.2141 21.3031 30.5947 24.2391 30.5947C27.1751 30.5947 29.5557 28.2141 29.5557 25.2781C29.5557 22.3421 27.1751 19.9615 24.2391 19.9615ZM26.3337 26.9123L25.9943 27.3751C25.9869 27.3852 25.9776 27.3937 25.9669 27.4002C25.9563 27.4066 25.9444 27.4109 25.9321 27.4128C25.9197 27.4147 25.9071 27.4141 25.895 27.4111C25.8829 27.4081 25.8714 27.4027 25.8614 27.3953L23.8985 25.9641C23.8863 25.9553 23.8764 25.9437 23.8695 25.9303C23.8627 25.9168 23.8592 25.902 23.8594 25.8869V22.6198C23.8594 22.5676 23.9021 22.5249 23.9543 22.5249H24.5251C24.5773 22.5249 24.6201 22.5676 24.6201 22.6198V25.557L26.3124 26.7805C26.3551 26.8102 26.3646 26.8695 26.3337 26.9123Z" fill="white"/>
</svg>
