<svg width="39" height="39" viewBox="0 0 39 39" fill="none" xmlns="http://www.w3.org/2000/svg">
<circle cx="19.769" cy="19.8099" r="18.8766" fill="#3B5BA1"/>
<path d="M18.351 10.1435C16.1175 10.1687 13.9416 10.8556 12.0985 12.1175C10.2555 13.3793 8.82798 15.1593 7.99655 17.2324C7.16513 19.3056 6.96713 21.5787 7.4276 23.7643C7.88806 25.95 8.9863 27.95 10.5835 29.5115C12.1806 31.073 14.2049 32.1258 16.4004 32.5368C18.5959 32.9478 20.864 32.6985 22.9178 31.8205C24.9716 30.9425 26.7189 29.4751 27.9388 27.6041C29.1587 25.733 29.7964 23.5422 29.7712 21.3087L18.4785 21.4362L18.351 10.1435Z" fill="#3B5BA1" stroke="white" stroke-width="1.10475"/>
<path d="M20.9321 7.88485C22.4151 7.8681 23.8869 8.14362 25.2634 8.69566C26.6399 9.24771 27.8942 10.0655 28.9546 11.1023C30.0151 12.139 30.861 13.3746 31.444 14.7382C32.0269 16.1019 32.3356 17.5671 32.3523 19.0501L21.0596 19.1776L20.9321 7.88485Z" stroke="white" stroke-width="1.10475"/>
</svg>
