<svg width="39" height="39" viewBox="0 0 39 39" fill="none" xmlns="http://www.w3.org/2000/svg">
<circle cx="19.4615" cy="19.8097" r="18.8766" fill="#3B5BA1"/>
<path d="M21.9221 10.8617C22.2121 10.5714 22.2121 10.1007 21.9221 9.81044C21.6321 9.52014 21.1619 9.52014 20.8719 9.81044L21.9221 10.8617ZM9.73953 21.262C9.73953 21.6725 10.072 22.0053 10.4821 22.0053L17.1655 22.0053C17.5756 22.0053 17.908 21.6725 17.908 21.262C17.908 20.8514 17.5756 20.5186 17.1654 20.5186L11.2247 20.5186L11.2247 14.5719C11.2247 14.1614 10.8922 13.8286 10.4821 13.8286C10.072 13.8286 9.73953 14.1614 9.73953 14.5719L9.73953 21.262ZM20.8719 9.81044L9.95703 20.7364L11.0072 21.7876L21.9221 10.8617L20.8719 9.81044Z" fill="white"/>
<path d="M17.2348 28.2448C16.9478 28.532 16.9478 28.9978 17.2348 29.285C17.5217 29.5722 17.987 29.5722 18.2739 29.285L17.2348 28.2448ZM29.176 18.0672C29.176 17.661 28.8471 17.3317 28.4413 17.3317L21.8281 17.3317C21.4223 17.3317 21.0933 17.661 21.0933 18.0672C21.0933 18.4734 21.4223 18.8028 21.8281 18.8028L27.7065 18.8028L27.7065 24.687C27.7065 25.0933 28.0354 25.4226 28.4413 25.4226C28.8471 25.4226 29.176 25.0933 29.176 24.687L29.176 18.0672ZM18.2739 29.285L28.9608 18.5873L27.9217 17.5471L17.2348 28.2448L18.2739 29.285Z" fill="white"/>
</svg>
