<svg width="73" height="72" viewBox="0 0 73 72" fill="none" xmlns="http://www.w3.org/2000/svg">
<circle cx="36.5" cy="36" r="36" fill="#EDF0F6"/>
<g clip-path="url(#clip0_1028_7492)">
<path d="M46.0993 30.3358C45.9194 30.157 45.6761 30.0566 45.4225 30.0566C45.1689 30.0566 44.9255 30.157 44.7457 30.3358L34.0897 40.9438L28.3297 35.1838C28.154 34.9941 27.9102 34.882 27.6518 34.8721C27.3935 34.8622 27.1418 34.9553 26.9521 35.131C26.7624 35.3067 26.6503 35.5505 26.6404 35.8089C26.6305 36.0672 26.7236 36.3189 26.8993 36.5086L34.0897 43.6798L46.0993 31.699C46.1893 31.6098 46.2607 31.5036 46.3094 31.3866C46.3582 31.2696 46.3832 31.1441 46.3832 31.0174C46.3832 30.8907 46.3582 30.7652 46.3094 30.6482C46.2607 30.5312 46.1893 30.425 46.0993 30.3358Z" fill="#254896"/>
<path d="M36.4997 20.6396C33.4617 20.6396 30.492 21.5405 27.9661 23.2283C25.4402 24.9161 23.4714 27.315 22.3089 30.1216C21.1463 32.9283 20.8421 36.0167 21.4348 38.9962C22.0275 41.9758 23.4904 44.7127 25.6385 46.8608C27.7866 49.0089 30.5235 50.4718 33.5031 51.0645C36.4826 51.6572 39.571 51.353 42.3777 50.1904C45.1843 49.0279 47.5833 47.0591 49.271 44.5332C50.9588 42.0073 51.8597 39.0376 51.8597 35.9996C51.8597 31.9259 50.2414 28.019 47.3608 25.1385C44.4803 22.2579 40.5734 20.6396 36.4997 20.6396ZM36.4997 49.4396C33.8415 49.4396 31.243 48.6514 29.0328 47.1746C26.8226 45.6978 25.1 43.5988 24.0827 41.1429C23.0655 38.6871 22.7993 35.9847 23.3179 33.3776C23.8365 30.7705 25.1165 28.3758 26.9961 26.4961C28.8758 24.6165 31.2705 23.3365 33.8776 22.8179C36.4847 22.2993 39.1871 22.5655 41.6429 23.5827C44.0988 24.5999 46.1978 26.3226 47.6746 28.5328C49.1514 30.743 49.9397 33.3415 49.9397 35.9996C49.9397 39.5642 48.5237 42.9827 46.0032 45.5032C43.4827 48.0237 40.0642 49.4396 36.4997 49.4396Z" fill="#254896"/>
</g>
<defs>
<clipPath id="clip0_1028_7492">
<rect width="34.56" height="34.56" fill="white" transform="translate(19.2197 18.7197)"/>
</clipPath>
</defs>
</svg>
