<svg width="23" height="23" viewBox="0 0 23 23" fill="none" xmlns="http://www.w3.org/2000/svg">
<path d="M11.35 0C5.08197 0 0 5.08197 0 11.35C0 17.6181 5.08197 22.7 11.35 22.7C17.6181 22.7 22.7 17.6181 22.7 11.35C22.7 5.08197 17.6181 0 11.35 0ZM12.2958 17.025H10.4042V10.4042H12.2958V17.025ZM11.35 8.03959C10.5669 8.03959 9.93126 7.40399 9.93126 6.62084C9.93126 5.83769 10.5669 5.20209 11.35 5.20209C12.1332 5.20209 12.7688 5.83769 12.7688 6.62084C12.7688 7.40399 12.1332 8.03959 11.35 8.03959Z" fill="#3B5BA1"/>
</svg>
