<svg width="131" height="16" viewBox="0 0 131 16" fill="none" xmlns="http://www.w3.org/2000/svg">
<rect width="16" height="16" rx="2.66667" fill="#27CD98"/>
<rect x="20" width="16" height="16" rx="2.66667" fill="#38DDA9"/>
<rect x="40" width="16" height="16" rx="2.66667" fill="#50E9B9"/>
<rect x="60" width="16" height="16" rx="2.66667" fill="#70F2C9"/>
<rect x="80" width="16" height="16" rx="2.66667" fill="#98F9DA"/>
<path d="M101.709 12V3.6H104.853C105.565 3.6 106.177 3.716 106.689 3.948C107.201 4.172 107.593 4.5 107.865 4.932C108.145 5.356 108.285 5.872 108.285 6.48C108.285 7.072 108.145 7.584 107.865 8.016C107.593 8.44 107.201 8.768 106.689 9C106.177 9.232 105.565 9.348 104.853 9.348H102.201L102.597 8.928V12H101.709ZM102.597 9L102.201 8.568H104.829C105.669 8.568 106.305 8.388 106.737 8.028C107.177 7.66 107.397 7.144 107.397 6.48C107.397 5.808 107.177 5.288 106.737 4.92C106.305 4.552 105.669 4.368 104.829 4.368H102.201L102.597 3.948V9ZM109.272 12V5.7H110.088V7.416L110.004 7.116C110.18 6.636 110.476 6.272 110.892 6.024C111.308 5.768 111.824 5.64 112.44 5.64V6.468C112.408 6.468 112.376 6.468 112.344 6.468C112.312 6.46 112.28 6.456 112.248 6.456C111.584 6.456 111.064 6.66 110.688 7.068C110.312 7.468 110.124 8.04 110.124 8.784V12H109.272ZM115.904 12.06C115.296 12.06 114.748 11.924 114.26 11.652C113.78 11.372 113.4 10.992 113.12 10.512C112.84 10.024 112.7 9.468 112.7 8.844C112.7 8.212 112.84 7.656 113.12 7.176C113.4 6.696 113.78 6.32 114.26 6.048C114.74 5.776 115.288 5.64 115.904 5.64C116.528 5.64 117.08 5.776 117.56 6.048C118.048 6.32 118.428 6.696 118.7 7.176C118.98 7.656 119.12 8.212 119.12 8.844C119.12 9.468 118.98 10.024 118.7 10.512C118.428 10.992 118.048 11.372 117.56 11.652C117.072 11.924 116.52 12.06 115.904 12.06ZM115.904 11.304C116.36 11.304 116.764 11.204 117.116 11.004C117.468 10.796 117.744 10.508 117.944 10.14C118.152 9.764 118.256 9.332 118.256 8.844C118.256 8.348 118.152 7.916 117.944 7.548C117.744 7.18 117.468 6.896 117.116 6.696C116.764 6.488 116.364 6.384 115.916 6.384C115.468 6.384 115.068 6.488 114.716 6.696C114.364 6.896 114.084 7.18 113.876 7.548C113.668 7.916 113.564 8.348 113.564 8.844C113.564 9.332 113.668 9.764 113.876 10.14C114.084 10.508 114.364 10.796 114.716 11.004C115.068 11.204 115.464 11.304 115.904 11.304ZM120.404 12V4.908C120.404 4.348 120.568 3.896 120.896 3.552C121.224 3.208 121.696 3.036 122.312 3.036C122.552 3.036 122.784 3.068 123.008 3.132C123.232 3.196 123.42 3.296 123.572 3.432L123.284 4.068C123.164 3.964 123.024 3.888 122.864 3.84C122.704 3.784 122.532 3.756 122.348 3.756C121.988 3.756 121.712 3.856 121.52 4.056C121.328 4.256 121.232 4.552 121.232 4.944V5.904L121.256 6.3V12H120.404ZM119.276 6.408V5.7H123.176V6.408H119.276ZM124.328 12V5.7H125.18V12H124.328ZM124.76 4.308C124.584 4.308 124.436 4.248 124.316 4.128C124.196 4.008 124.136 3.864 124.136 3.696C124.136 3.528 124.196 3.388 124.316 3.276C124.436 3.156 124.584 3.096 124.76 3.096C124.936 3.096 125.084 3.152 125.204 3.264C125.324 3.376 125.384 3.516 125.384 3.684C125.384 3.86 125.324 4.008 125.204 4.128C125.092 4.248 124.944 4.308 124.76 4.308ZM128.964 12.06C128.372 12.06 127.916 11.9 127.596 11.58C127.276 11.26 127.116 10.808 127.116 10.224V4.308H127.968V10.176C127.968 10.544 128.06 10.828 128.244 11.028C128.436 11.228 128.708 11.328 129.06 11.328C129.436 11.328 129.748 11.22 129.996 11.004L130.296 11.616C130.128 11.768 129.924 11.88 129.684 11.952C129.452 12.024 129.212 12.06 128.964 12.06ZM125.988 6.408V5.7H129.888V6.408H125.988Z" fill="black"/>
</svg>
