<svg width="125" height="16" viewBox="0 0 125 16" fill="none" xmlns="http://www.w3.org/2000/svg">
<rect width="16" height="16" rx="2.66667" fill="#FF5B53"/>
<rect x="20" width="16" height="16" rx="2.66667" fill="#FF7C76"/>
<rect x="40" width="16" height="16" rx="2.66667" fill="#FF7C76"/>
<rect x="60" width="16" height="16" rx="2.66667" fill="#FF9E99"/>
<rect x="80" width="16" height="16" rx="2.66667" fill="#FFBFBC"/>
<path d="M101.368 12V3.6H102.256V11.232H106.96V12H101.368ZM110.129 12.06C109.521 12.06 108.973 11.924 108.485 11.652C108.005 11.372 107.625 10.992 107.345 10.512C107.065 10.024 106.925 9.468 106.925 8.844C106.925 8.212 107.065 7.656 107.345 7.176C107.625 6.696 108.005 6.32 108.485 6.048C108.965 5.776 109.513 5.64 110.129 5.64C110.753 5.64 111.305 5.776 111.785 6.048C112.273 6.32 112.653 6.696 112.925 7.176C113.205 7.656 113.345 8.212 113.345 8.844C113.345 9.468 113.205 10.024 112.925 10.512C112.653 10.992 112.273 11.372 111.785 11.652C111.297 11.924 110.745 12.06 110.129 12.06ZM110.129 11.304C110.585 11.304 110.989 11.204 111.341 11.004C111.693 10.796 111.969 10.508 112.169 10.14C112.377 9.764 112.481 9.332 112.481 8.844C112.481 8.348 112.377 7.916 112.169 7.548C111.969 7.18 111.693 6.896 111.341 6.696C110.989 6.488 110.589 6.384 110.141 6.384C109.693 6.384 109.293 6.488 108.941 6.696C108.589 6.896 108.309 7.18 108.101 7.548C107.893 7.916 107.789 8.348 107.789 8.844C107.789 9.332 107.893 9.764 108.101 10.14C108.309 10.508 108.589 10.796 108.941 11.004C109.293 11.204 109.689 11.304 110.129 11.304ZM116.176 12.06C115.656 12.06 115.164 11.988 114.7 11.844C114.236 11.692 113.872 11.504 113.608 11.28L113.992 10.608C114.248 10.8 114.576 10.968 114.976 11.112C115.376 11.248 115.796 11.316 116.236 11.316C116.836 11.316 117.268 11.224 117.532 11.04C117.796 10.848 117.928 10.596 117.928 10.284C117.928 10.052 117.852 9.872 117.7 9.744C117.556 9.608 117.364 9.508 117.124 9.444C116.884 9.372 116.616 9.312 116.32 9.264C116.024 9.216 115.728 9.16 115.432 9.096C115.144 9.032 114.88 8.94 114.64 8.82C114.4 8.692 114.204 8.52 114.052 8.304C113.908 8.088 113.836 7.8 113.836 7.44C113.836 7.096 113.932 6.788 114.124 6.516C114.316 6.244 114.596 6.032 114.964 5.88C115.34 5.72 115.796 5.64 116.332 5.64C116.74 5.64 117.148 5.696 117.556 5.808C117.964 5.912 118.3 6.052 118.564 6.228L118.192 6.912C117.912 6.72 117.612 6.584 117.292 6.504C116.972 6.416 116.652 6.372 116.332 6.372C115.764 6.372 115.344 6.472 115.072 6.672C114.808 6.864 114.676 7.112 114.676 7.416C114.676 7.656 114.748 7.844 114.892 7.98C115.044 8.116 115.24 8.224 115.48 8.304C115.728 8.376 115.996 8.436 116.284 8.484C116.58 8.532 116.872 8.592 117.16 8.664C117.456 8.728 117.724 8.82 117.964 8.94C118.212 9.052 118.408 9.216 118.552 9.432C118.704 9.64 118.78 9.916 118.78 10.26C118.78 10.628 118.676 10.948 118.468 11.22C118.268 11.484 117.972 11.692 117.58 11.844C117.196 11.988 116.728 12.06 116.176 12.06ZM121.435 12.06C120.915 12.06 120.423 11.988 119.959 11.844C119.495 11.692 119.131 11.504 118.867 11.28L119.251 10.608C119.507 10.8 119.835 10.968 120.235 11.112C120.635 11.248 121.055 11.316 121.495 11.316C122.095 11.316 122.527 11.224 122.791 11.04C123.055 10.848 123.187 10.596 123.187 10.284C123.187 10.052 123.111 9.872 122.959 9.744C122.815 9.608 122.623 9.508 122.383 9.444C122.143 9.372 121.875 9.312 121.579 9.264C121.283 9.216 120.987 9.16 120.691 9.096C120.403 9.032 120.139 8.94 119.899 8.82C119.659 8.692 119.463 8.52 119.311 8.304C119.167 8.088 119.095 7.8 119.095 7.44C119.095 7.096 119.191 6.788 119.383 6.516C119.575 6.244 119.855 6.032 120.223 5.88C120.599 5.72 121.055 5.64 121.591 5.64C121.999 5.64 122.407 5.696 122.815 5.808C123.223 5.912 123.559 6.052 123.823 6.228L123.451 6.912C123.171 6.72 122.871 6.584 122.551 6.504C122.231 6.416 121.911 6.372 121.591 6.372C121.023 6.372 120.603 6.472 120.331 6.672C120.067 6.864 119.935 7.112 119.935 7.416C119.935 7.656 120.007 7.844 120.151 7.98C120.303 8.116 120.499 8.224 120.739 8.304C120.987 8.376 121.255 8.436 121.543 8.484C121.839 8.532 122.131 8.592 122.419 8.664C122.715 8.728 122.983 8.82 123.223 8.94C123.471 9.052 123.667 9.216 123.811 9.432C123.963 9.64 124.039 9.916 124.039 10.26C124.039 10.628 123.935 10.948 123.727 11.22C123.527 11.484 123.231 11.692 122.839 11.844C122.455 11.988 121.987 12.06 121.435 12.06Z" fill="black"/>
</svg>
