<svg width="21" height="22" viewBox="0 0 21 22" fill="none" xmlns="http://www.w3.org/2000/svg">
<path fill-rule="evenodd" clip-rule="evenodd" d="M10.5 11.875C7.11726 11.875 4.375 14.6173 4.375 18V19.75C4.375 20.2332 3.98325 20.625 3.5 20.625C3.01675 20.625 2.625 20.2332 2.625 19.75V18C2.625 13.6508 6.15076 10.125 10.5 10.125C14.8492 10.125 18.375 13.6508 18.375 18V19.75C18.375 20.2332 17.9832 20.625 17.5 20.625C17.0168 20.625 16.625 20.2332 16.625 19.75V18C16.625 14.6173 13.8827 11.875 10.5 11.875Z" fill="#7D7D7D"/>
<path fill-rule="evenodd" clip-rule="evenodd" d="M10.5 10.125C12.433 10.125 14 8.558 14 6.625C14 4.692 12.433 3.125 10.5 3.125C8.567 3.125 7 4.692 7 6.625C7 8.558 8.567 10.125 10.5 10.125ZM10.5 11.875C13.3995 11.875 15.75 9.52449 15.75 6.625C15.75 3.72551 13.3995 1.375 10.5 1.375C7.60051 1.375 5.25 3.72551 5.25 6.625C5.25 9.52449 7.60051 11.875 10.5 11.875Z" fill="#7D7D7D"/>
</svg>
