<svg width="23" height="24" viewBox="0 0 23 24" fill="none" xmlns="http://www.w3.org/2000/svg">
<g clip-path="url(#clip0_652_13280)">
<path d="M20.125 17.7723C20.125 18.24 19.7458 18.6192 19.2781 18.6192H3.7219C3.25417 18.6192 2.875 18.24 2.875 17.7723C2.875 17.3046 3.25417 16.9254 3.7219 16.9254H3.7375V11.0233C3.7375 6.79901 7.21338 3.375 11.5 3.375C15.7866 3.375 19.2625 6.79901 19.2625 11.0233V16.9254H19.2781C19.7458 16.9254 20.125 17.3046 20.125 17.7723ZM5.4625 16.9254H17.5375V11.0233C17.5375 7.73484 14.8344 5.0688 11.5 5.0688C8.16558 5.0688 5.4625 7.73484 5.4625 11.0233V16.9254ZM9.57922 20.4282C9.32462 19.9381 9.79147 19.4661 10.3438 19.4661H12.6562C13.2085 19.4661 13.6754 19.9381 13.4208 20.4282C13.3191 20.624 13.186 20.8049 13.0247 20.9632C12.6203 21.3603 12.0719 21.5833 11.5 21.5833C10.9281 21.5833 10.3797 21.3603 9.9753 20.9632C9.81403 20.8049 9.68095 20.624 9.57922 20.4282Z" fill="#7D7D7D"/>
</g>
<defs>
<clipPath id="clip0_652_13280">
<rect width="23" height="23" fill="white" transform="translate(0 0.5)"/>
</clipPath>
</defs>
</svg>
